<?xml version="1.0" encoding="UTF-8"?>
<svg xmlns="http://www.w3.org/2000/svg" xmlns:xlink="http://www.w3.org/1999/xlink" viewBox="0 0 54 86" version="1.1">
<g id="surface1">
<path style=" stroke:none;fill-rule:nonzero;fill:#fff;fill-opacity:1;" d="M 34.472656 6.164062 L 16.199219 6.164062 C 7.261719 6.164062 0 13.242188 0 21.953125 C 0 24.851562 2.410156 27.0625 5.398438 27.0625 C 8.386719 27.0625 10.800781 24.710938 10.800781 21.953125 C 10.800781 19.050781 13.21875 16.691406 16.199219 16.691406 L 34.472656 16.691406 C 39.285156 16.691406 43.199219 20.5 43.199219 25.203125 C 43.199219 28.449219 41.351562 31.367188 38.054688 32.992188 L 21.566406 42.40625 C 19.757812 43.363281 18.898438 45.085938 18.898438 46.949219 L 18.898438 53.527344 C 18.898438 56.429688 21.320312 58.78125 24.300781 58.78125 C 27.289062 58.78125 29.699219 56.429688 29.699219 53.527344 L 29.699219 49.957031 L 43.199219 42.230469 C 49.859375 38.976562 54 32.453125 54 25.203125 C 54 14.703125 45.238281 6.164062 34.472656 6.164062 Z M 24.300781 66.683594 C 20.574219 66.683594 17.550781 69.628906 17.550781 73.261719 C 17.550781 76.894531 20.574219 79.695312 24.300781 79.695312 C 28.027344 79.695312 31.050781 76.746094 31.050781 73.261719 C 31.050781 69.777344 28.027344 66.683594 24.300781 66.683594 Z M 24.300781 66.683594 "/>
</g>
</svg>
